<svg xmlns="http://www.w3.org/2000/svg" width="128" height="128" viewBox="0 0 128 128" version="1.1">
	<path d="M 7.030 1.279 C 5.672 1.967, 3.523 4.068, 2.256 5.948 L -0.048 9.367 0.226 65.165 L 0.500 120.963 3.769 124.231 L 7.037 127.500 62.769 127.749 C 105.949 127.941, 119.053 127.714, 120.957 126.740 C 122.309 126.049, 124.656 123.687, 126.174 121.492 L 128.934 117.500 128.967 62.583 C 128.985 32.379, 128.703 7.964, 128.339 8.327 C 127.976 8.691, 127.182 7.992, 126.575 6.774 C 125.968 5.556, 123.948 3.534, 122.088 2.280 L 118.704 0 64.102 0.015 C 22.433 0.026, 8.915 0.326, 7.030 1.279 M 0.467 64 C 0.467 94.525, 0.594 107.012, 0.749 91.750 C 0.905 76.487, 0.905 51.512, 0.749 36.250 C 0.594 20.987, 0.467 33.475, 0.467 64 M 41 30.752 C 36.507 32.996, 34.004 38.004, 34.002 44.750 L 34 50 29.500 50 C 25.367 50, 25 50.204, 25 52.500 C 25 54.796, 25.367 55, 29.500 55 L 34 55 34 76 L 34 97 36.500 97 L 39 97 39 76 L 39 55 47 55 C 54.867 55, 55 54.958, 55 52.500 C 55 50.042, 54.867 50, 47 50 L 39 50 39 44.635 C 39 35.854, 44.560 31.137, 51.077 34.388 C 53.770 35.732, 54.092 35.697, 55.021 33.960 C 55.864 32.385, 55.537 31.812, 53.066 30.534 C 49.183 28.526, 45.315 28.596, 41 30.752 M 62.999 37.250 C 62.998 39.024, 61.158 59.588, 60.501 65.172 C 60.039 69.100, 60.235 69.906, 61.726 70.230 C 62.702 70.443, 64.957 69.372, 66.737 67.850 C 70.801 64.377, 77.096 62.637, 82.609 63.464 C 90.448 64.640, 95 70.274, 95 78.802 C 95 90.051, 85.101 96.378, 72.832 92.970 C 68.728 91.830, 63 86.001, 63 82.965 C 63 80.911, 61.416 80.450, 59.195 81.858 C 58.139 82.528, 58.208 83.478, 59.555 86.847 C 62.749 94.829, 70.212 98.538, 81.616 97.812 C 89.641 97.301, 94.157 94.318, 97.663 87.212 C 99.866 82.747, 100.182 81.056, 99.697 76.353 C 99.336 72.855, 98.194 69.380, 96.627 67.013 C 91.438 59.172, 79.068 56.606, 69.589 61.405 L 64.838 63.810 65.385 59.155 C 65.686 56.595, 66.218 51.237, 66.568 47.250 L 67.203 40 82.601 40 C 97.333 40, 98 39.913, 98 38 C 98 36.076, 97.333 36, 80.500 36 C 67.167 36, 63 36.298, 62.999 37.250" stroke="none" fill="black" fill-rule="evenodd"/>
</svg>