<svg width="982" height="195" viewBox="0 0 982 195" fill="none" xmlns="http://www.w3.org/2000/svg">
<rect x="0.5" y="77.5" width="51" height="51" rx="11.5" stroke="#777777"/>
<rect x="264.5" y="77.5" width="51" height="51" rx="11.5" stroke="#777777"/>
<rect x="528.5" y="77.5" width="51" height="51" rx="11.5" stroke="#777777"/>
<rect x="132.5" y="77.5" width="51" height="51" rx="11.5" stroke="#777777"/>
<rect x="396.5" y="77.5" width="51" height="51" rx="11.5" stroke="#777777"/>
<rect x="660.5" y="77.5" width="51" height="51" rx="11.5" stroke="#777777"/>
<rect x="66.5" y="77.5" width="51" height="51" rx="11.5" stroke="#777777"/>
<rect x="330.5" y="77.5" width="51" height="51" rx="11.5" stroke="#777777"/>
<rect x="594.5" y="77.5" width="51" height="51" rx="11.5" stroke="#777777"/>
<rect x="198.5" y="77.5" width="51" height="51" rx="11.5" stroke="#777777"/>
<rect x="462.5" y="77.5" width="51" height="51" rx="11.5" stroke="#777777"/>
<rect x="726.5" y="77.5" width="51" height="51" rx="11.5" stroke="#777777"/>
<rect x="792.5" y="77.5" width="51" height="51" rx="11.5" stroke="#777777"/>
<rect x="858.5" y="77.5" width="123" height="51" rx="11.5" stroke="#777777"/>
<rect x="0.5" y="143.5" width="79" height="51" rx="11.5" stroke="#777777"/>
<rect x="290.5" y="143.5" width="51" height="51" rx="11.5" stroke="#777777"/>
<rect x="554.5" y="143.5" width="51" height="51" rx="11.5" stroke="#777777"/>
<rect x="158.5" y="143.5" width="51" height="51" rx="11.5" stroke="#777777"/>
<rect x="422.5" y="143.5" width="51" height="51" rx="11.5" stroke="#777777"/>
<rect x="686.5" y="143.5" width="51" height="51" rx="11.5" stroke="#777777"/>
<rect x="92.5" y="143.5" width="51" height="51" rx="11.5" stroke="#777777"/>
<rect x="356.5" y="143.5" width="51" height="51" rx="11.5" stroke="#777777"/>
<rect x="620.5" y="143.5" width="51" height="51" rx="11.5" stroke="#777777"/>
<rect x="224.5" y="143.5" width="51" height="51" rx="11.5" stroke="#777777"/>
<rect x="488.5" y="143.5" width="51" height="51" rx="11.5" stroke="#777777"/>
<rect x="752.5" y="143.5" width="51" height="51" rx="11.5" stroke="#777777"/>
<rect x="818.5" y="143.5" width="51" height="51" rx="11.5" stroke="#777777"/>
<rect x="885.5" y="143.5" width="96" height="51" rx="11.5" stroke="#777777"/>
<rect x="732.5" y="0.5" width="51" height="51" rx="11.5" stroke="#777777"/>
<rect x="864.5" y="0.5" width="51" height="51" rx="11.5" stroke="#777777"/>
<rect x="798.5" y="0.5" width="51" height="51" rx="11.5" stroke="#777777"/>
<rect x="930.5" y="0.5" width="51" height="51" rx="11.5" stroke="#777777"/>
<path d="M422 12C422 5.37258 427.373 0 434 0H462C468.627 0 474 5.37258 474 12V40C474 46.6274 468.627 52 462 52H434C427.373 52 422 46.6274 422 40V12Z" fill="#8F43D6" fill-opacity="0.33"/>
<rect x="422.5" y="0.5" width="51" height="51" rx="11.5" stroke="#777777"/>
<rect x="554.5" y="0.5" width="51" height="51" rx="11.5" stroke="#777777"/>
<rect x="488.5" y="0.5" width="51" height="51" rx="11.5" stroke="#777777"/>
<rect x="620.5" y="0.5" width="51" height="51" rx="11.5" stroke="#777777"/>
<path d="M443.736 20V20.864H437.184V38H436.176V20.864H432.576V20H436.176V17.012C436.176 15.308 436.608 13.976 437.472 13.016C438.36 12.032 439.596 11.54 441.18 11.54C441.852 11.54 442.416 11.636 442.872 11.828C443.328 12.02 443.7 12.272 443.988 12.584L443.628 13.376C443.052 12.752 442.248 12.44 441.216 12.44C439.944 12.44 438.948 12.848 438.228 13.664C437.532 14.456 437.184 15.584 437.184 17.048V20H443.736ZM453.995 38.36C451.931 38.36 450.179 37.928 448.739 37.064C447.323 36.2 446.375 34.736 445.895 32.672L446.831 32.24C447.167 34.016 447.947 35.336 449.171 36.2C450.419 37.04 452.039 37.46 454.031 37.46C455.351 37.46 456.515 37.184 457.523 36.632C458.531 36.056 459.311 35.276 459.863 34.292C460.439 33.308 460.727 32.168 460.727 30.872C460.727 28.928 460.127 27.356 458.927 26.156C457.727 24.956 456.155 24.356 454.211 24.356C452.411 24.356 450.983 24.656 449.927 25.256C448.895 25.856 448.103 26.528 447.551 27.272L446.651 27.2L447.803 14.24H460.799V15.14H448.631L447.695 25.58L447.623 26.228H447.695C448.247 25.484 449.051 24.836 450.107 24.284C451.163 23.732 452.567 23.456 454.319 23.456C455.783 23.456 457.067 23.768 458.171 24.392C459.299 25.016 460.175 25.892 460.799 27.02C461.423 28.124 461.735 29.396 461.735 30.836C461.735 32.324 461.399 33.632 460.727 34.76C460.079 35.888 459.167 36.776 457.991 37.424C456.839 38.048 455.507 38.36 453.995 38.36Z" fill="#777777"/>
<rect x="112.5" y="0.5" width="51" height="51" rx="11.5" stroke="#777777"/>
<rect x="244.5" y="0.5" width="51" height="51" rx="11.5" stroke="#777777"/>
<rect x="178.5" y="0.5" width="51" height="51" rx="11.5" stroke="#777777"/>
<rect x="310.5" y="0.5" width="51" height="51" rx="11.5" stroke="#777777"/>
<rect x="0.5" y="0.5" width="51" height="51" rx="11.5" stroke="#777777"/>
</svg>
