<svg width="982" height="195" viewBox="0 0 982 195" fill="none" xmlns="http://www.w3.org/2000/svg">
<rect x="0.5" y="77.5" width="51" height="51" rx="11.5" stroke="#777777"/>
<rect x="264.5" y="77.5" width="51" height="51" rx="11.5" stroke="#777777"/>
<rect x="528.5" y="77.5" width="51" height="51" rx="11.5" stroke="#777777"/>
<rect x="132.5" y="77.5" width="51" height="51" rx="11.5" stroke="#777777"/>
<rect x="396.5" y="77.5" width="51" height="51" rx="11.5" stroke="#777777"/>
<rect x="660.5" y="77.5" width="51" height="51" rx="11.5" stroke="#777777"/>
<rect x="66.5" y="77.5" width="51" height="51" rx="11.5" stroke="#777777"/>
<rect x="330.5" y="77.5" width="51" height="51" rx="11.5" stroke="#777777"/>
<rect x="594.5" y="77.5" width="51" height="51" rx="11.5" stroke="#777777"/>
<rect x="198.5" y="77.5" width="51" height="51" rx="11.5" stroke="#777777"/>
<rect x="462.5" y="77.5" width="51" height="51" rx="11.5" stroke="#777777"/>
<rect x="726.5" y="77.5" width="51" height="51" rx="11.5" stroke="#777777"/>
<rect x="792.5" y="77.5" width="51" height="51" rx="11.5" stroke="#777777"/>
<rect x="858.5" y="77.5" width="123" height="51" rx="11.5" stroke="#777777"/>
<rect x="0.5" y="143.5" width="79" height="51" rx="11.5" stroke="#777777"/>
<rect x="290.5" y="143.5" width="51" height="51" rx="11.5" stroke="#777777"/>
<rect x="554.5" y="143.5" width="51" height="51" rx="11.5" stroke="#777777"/>
<rect x="158.5" y="143.5" width="51" height="51" rx="11.5" stroke="#777777"/>
<rect x="422.5" y="143.5" width="51" height="51" rx="11.5" stroke="#777777"/>
<rect x="686.5" y="143.5" width="51" height="51" rx="11.5" stroke="#777777"/>
<rect x="92.5" y="143.5" width="51" height="51" rx="11.5" stroke="#777777"/>
<rect x="356.5" y="143.5" width="51" height="51" rx="11.5" stroke="#777777"/>
<rect x="620.5" y="143.5" width="51" height="51" rx="11.5" stroke="#777777"/>
<rect x="224.5" y="143.5" width="51" height="51" rx="11.5" stroke="#777777"/>
<rect x="488.5" y="143.5" width="51" height="51" rx="11.5" stroke="#777777"/>
<rect x="752.5" y="143.5" width="51" height="51" rx="11.5" stroke="#777777"/>
<rect x="818.5" y="143.5" width="51" height="51" rx="11.5" stroke="#777777"/>
<rect x="885.5" y="143.5" width="96" height="51" rx="11.5" stroke="#777777"/>
<rect x="732.5" y="0.5" width="51" height="51" rx="11.5" stroke="#777777"/>
<rect x="864.5" y="0.5" width="51" height="51" rx="11.5" stroke="#777777"/>
<rect x="798.5" y="0.5" width="51" height="51" rx="11.5" stroke="#777777"/>
<rect x="930.5" y="0.5" width="51" height="51" rx="11.5" stroke="#777777"/>
<path d="M422 12C422 5.37258 427.373 0 434 0H462C468.627 0 474 5.37258 474 12V40C474 46.6274 468.627 52 462 52H434C427.373 52 422 46.6274 422 40V12Z" fill="#D8D8D8" fill-opacity="0.37"/>
<rect x="422.5" y="0.5" width="51" height="51" rx="11.5" stroke="#777777"/>
<rect x="554.5" y="0.5" width="51" height="51" rx="11.5" stroke="#777777"/>
<rect x="488.5" y="0.5" width="51" height="51" rx="11.5" stroke="#777777"/>
<rect x="620.5" y="0.5" width="51" height="51" rx="11.5" stroke="#777777"/>
<rect x="112.5" y="0.5" width="51" height="51" rx="11.5" stroke="#777777"/>
<rect x="244.5" y="0.5" width="51" height="51" rx="11.5" stroke="#777777"/>
<rect x="178.5" y="0.5" width="51" height="51" rx="11.5" stroke="#777777"/>
<rect x="310.5" y="0.5" width="51" height="51" rx="11.5" stroke="#777777"/>
<rect x="0.5" y="0.5" width="51" height="51" rx="11.5" stroke="#777777"/>
</svg>
